<svg width="16" height="16" viewBox="0 0 16 16" fill="none" xmlns="http://www.w3.org/2000/svg">
<rect width="16" height="16" fill="#E42436"/>
<path d="M6.45304 11.3046L6 9.72682C7.12103 9.45001 7.5873 9.10554 7.65013 8.87487C7.70635 8.67495 7.47817 8.32433 7.25992 7.98909C6.88955 7.4201 6.42989 6.71578 6.70106 5.86383C6.99206 4.95344 7.97421 4.34139 9.71032 4L10.0741 5.59625C8.84392 5.83923 8.43056 6.16832 8.38095 6.32825C8.33135 6.48818 8.55622 6.83573 8.75794 7.14637C9.12831 7.71536 9.58796 8.42275 9.34656 9.29008C9.18783 9.85292 8.77116 10.3266 8.09987 10.6987C7.66336 10.9417 7.12103 11.1416 6.44974 11.3077L6.45304 11.3046Z" fill="white"/>
</svg>
